<?xml version="1.0" encoding="UTF-8"?>
<svg xmlns="http://www.w3.org/2000/svg" width="880" height="64" viewBox="0 0 880 64" fill="none">
  <defs>
    <radialGradient id="leaderBurst" cx="50%" cy="50%" r="50%">
      <stop offset="0%" stop-color="#FFD75E" stop-opacity="0.55"/>
      <stop offset="50%" stop-color="#D62828" stop-opacity="0.22"/>
      <stop offset="100%" stop-color="#0D1117" stop-opacity="0"/>
    </radialGradient>
    <linearGradient id="shieldGrad" x1="0" y1="0" x2="0" y2="1">
      <stop offset="0%" stop-color="#FFD75E" stop-opacity="0.9"/>
      <stop offset="100%" stop-color="#D62828" stop-opacity="0.5"/>
    </linearGradient>
  </defs>
  <rect width="880" height="64" fill="url(#leaderBurst)"/>
  <g transform="translate(440,32)">
    <g>
      <animateTransform attributeName="transform" type="scale" values="1;1.08;1" dur="3s" repeatCount="indefinite"/>
      <path d="M0,-22 L20,-14 L20,4 C20,16 10,22 0,26 C-10,22 -20,16 -20,4 L-20,-14 Z" fill="url(#shieldGrad)" stroke="#1A1A1A" stroke-width="1.2"/>
      <circle cx="0" cy="0" r="3.5" fill="#1A1A1A"/>
      <g stroke="#1A1A1A" stroke-width="0.9" fill="none">
        <line x1="-3" y1="-1" x2="-9" y2="-6"/>
        <line x1="-3" y1="0" x2="-10" y2="0"/>
        <line x1="-3" y1="1" x2="-9" y2="6"/>
        <line x1="3" y1="-1" x2="9" y2="-6"/>
        <line x1="3" y1="0" x2="10" y2="0"/>
        <line x1="3" y1="1" x2="9" y2="6"/>
      </g>
    </g>
  </g>
  <g fill="#FFD75E" opacity="0.4">
    <circle cx="120" cy="32" r="2"/>
    <circle cx="160" cy="22" r="1.4"/>
    <circle cx="200" cy="42" r="1.8"/>
    <circle cx="720" cy="32" r="2"/>
    <circle cx="680" cy="42" r="1.4"/>
    <circle cx="640" cy="22" r="1.8"/>
  </g>
</svg>
